<svg xmlns="http://www.w3.org/2000/svg" xmlns:xlink="http://www.w3.org/1999/xlink" fill="none" version="1.1" width="22.041887283325195" height="26.49504280090332" viewBox="0 0 22.041887283325195 26.49504280090332"><g><path d="M17.3027,7.43449C17.3848,7.48137,17.4639,7.52824,17.543,7.58391L17.7832,7.74797L17.7861,8.03508C17.7979,8.87004,17.6982,9.5761,17.4814,10.1181C17.2793,10.6161,16.9805,10.9882,16.582,11.2109C16.3096,12.1806,15.9902,13.08,15.5391,13.8359C15.0176,14.706,14.332,15.3739,13.3594,15.7343C12.9258,15.8925,11.8154,15.9687,10.749,15.9511C9.71777,15.9364,8.68359,15.8339,8.27344,15.6435C7.3916,15.2363,6.77051,14.5536,6.29883,13.7011C5.89453,12.9745,5.60742,12.1279,5.3584,11.2343C4.94531,11.0175,4.63476,10.6484,4.42676,10.1474C4.19824,9.59953,4.09277,8.88176,4.10742,8.03215L4.11035,7.74211L4.35059,7.58098C4.41211,7.53996,4.47363,7.50188,4.53516,7.46672C4.26562,4.12395,4.36816,2.88762,5.60742,1.47551C8.02734,-0.507886,13.5762,-0.437574,16.0283,1.36125C17.6982,2.93743,17.8154,4.70403,17.3027,7.43449ZM12.2197,17.0995L12.2549,17.8642L11.8008,18.6142L12.4336,22.7685L15.0234,17.1991L18.9697,17.0644C21.0088,18.9921,22.3154,23.5331,21.9932,26.495L0,26.495C0.0556639,23.8935,0.533203,19.4521,3.12305,17.1904L6.68848,17.2226L10.0283,22.7304L10.6553,18.6113L10.2012,17.8642L10.2363,17.0995C11.1006,17.0527,11.3555,17.0527,12.2197,17.0995ZM15.1699,6.24797C13.6025,6.55559,11.2676,6.82219,9.42188,5.78508C8.71289,5.38664,7.67285,6.20403,6.82324,6.11907C6.55957,6.64055,6.36328,7.21184,6.24902,7.81828L6.15527,8.31926L5.65137,8.26946C5.55762,8.26067,5.46094,8.27239,5.3584,8.30754C5.31152,8.32219,5.26758,8.33977,5.2207,8.3632C5.23535,8.91985,5.31152,9.37981,5.45508,9.72551C5.58105,10.0302,5.75976,10.2265,5.98828,10.2997L6.28418,10.3905L6.36621,10.6864C6.6123,11.6034,6.89062,12.4677,7.28027,13.1708C7.64062,13.8241,8.10352,14.3427,8.74512,14.6386C9.01465,14.7616,9.87012,14.832,10.7666,14.8466C11.7187,14.8613,12.668,14.8085,12.9814,14.6943C13.6875,14.4335,14.1943,13.9296,14.5898,13.2704C15.0146,12.5614,15.3164,11.662,15.5801,10.6747L15.6562,10.3935L15.9375,10.2968C16.1602,10.2177,16.333,10.0155,16.4531,9.71086C16.5908,9.36809,16.667,8.91399,16.6787,8.36906C16.6377,8.34856,16.5967,8.33098,16.5557,8.31926C16.456,8.28703,16.3623,8.26945,16.2715,8.27531L15.7793,8.30754L15.6885,7.82414C15.5771,7.26164,15.4043,6.7343,15.1699,6.24797Z" fill="#FFE680" fill-opacity="1" style="mix-blend-mode:passthrough"/></g></svg>