<svg xmlns="http://www.w3.org/2000/svg" xmlns:xlink="http://www.w3.org/1999/xlink" fill="none" version="1.1" width="28" height="24" viewBox="0 0 28 24"><g><path d="M28,12.8785C27.4575,7.43536,25.2,3.34413,22.47,3.34413C21.2189,3.44833,20.0899,4.14744,19.425,5.22965C17.955,1.95667,16.065,0,14,0C11.935,0,10.0625,1.97446,8.5925,5.33638C7.94403,4.21535,6.80408,3.4804,5.53,3.36192C2.8,3.36192,0.525,7.45315,0,12.8963L28,12.8785ZM22.2775,19.6557C21.5584,19.9092,20.8976,20.3086,20.335,20.8297C20.043,21.1067,19.6973,21.3188,19.32,21.4523C18.5826,21.7325,17.7519,21.4777,17.29,20.8297C16.1631,19.5736,14.4124,19.113,12.8275,19.6557C12.1006,19.9005,11.4368,20.3077,10.885,20.8475C10.4858,21.2403,9.96787,21.4848,9.415,21.5412C8.825,21.523,8.26824,21.2593,7.875,20.8119C6.71181,19.5675,4.94975,19.1111,3.3425,19.6379C3.02001,19.7407,2.70912,19.8778,2.415,20.047C2.86922,20.7286,3.38477,21.3657,3.955,21.9503L4.13,21.9503C4.89641,21.7323,5.71744,21.9896,6.23,22.6085C7.05393,23.4718,8.17942,23.9703,9.3625,23.9959L9.4675,23.9959C10.6309,23.9284,11.731,23.4356,12.565,22.6085C12.8816,22.3244,13.2503,22.1068,13.65,21.9681C14.3722,21.7146,15.1727,21.9666,15.6275,22.5907C16.7528,23.849,18.5015,24.316,20.09,23.7825C20.809,23.5316,21.4658,23.1249,22.015,22.5907C22.3243,22.3098,22.6879,22.0977,23.0825,21.9681C23.4277,21.8433,23.8048,21.8433,24.15,21.9681C24.7205,21.3774,25.236,20.7342,25.69,20.047C24.6652,19.4431,23.4334,19.3199,22.3125,19.709L22.2775,19.6557ZM26.4775,15.7779C25.3611,14.5166,23.6117,14.0545,22.0325,14.6039C21.3102,14.8503,20.648,15.2506,20.09,15.7779C19.7935,16.0489,19.449,16.2601,19.075,16.4005C18.3376,16.6807,17.5069,16.4259,17.045,15.7779C15.9205,14.5177,14.1673,14.0564,12.5825,14.6039C11.8556,14.8487,11.1918,15.256,10.64,15.7957C10.358,16.073,10.0165,16.28,9.6425,16.4005C8.89712,16.6215,8.09432,16.3612,7.6125,15.7423C6.43989,14.5012,4.67178,14.0519,3.0625,14.5861C2.33104,14.8324,1.66187,15.2393,1.1025,15.7779C0.942478,15.9279,0.766372,16.0592,0.577499,16.1692C0.812832,16.9346,1.1114,17.6784,1.47,18.3927C1.964,18.1597,2.41411,17.8406,2.8,17.45C3.09914,17.1826,3.44287,16.9718,3.815,16.8274C4.06736,16.7369,4.33676,16.7065,4.6025,16.7385C5.13786,16.8104,5.63237,17.0681,6.0025,17.4678C6.8213,18.3409,7.94854,18.8466,9.135,18.873C10.3033,18.8194,11.4116,18.332,12.25,17.5033C12.5491,17.236,12.8929,17.0252,13.265,16.8808C14.0102,16.6316,14.8295,16.8715,15.33,17.4855C16.4423,18.7532,18.1923,19.2224,19.775,18.6773C20.4981,18.4242,21.1602,18.018,21.7175,17.4855C22.0174,17.2144,22.3688,17.0086,22.75,16.8808C23.4874,16.6005,24.3181,16.8553,24.78,17.5033C25.2829,17.9975,25.8779,18.3846,26.53,18.6418C26.8913,17.9204,27.1956,17.1709,27.44,16.4005C27.0859,16.2721,26.7677,16.0585,26.5125,15.7779L26.4775,15.7779Z" fill="#33FFFF" fill-opacity="1" style="mix-blend-mode:passthrough"/></g></svg>